<svg width="335" height="30" viewBox="0 0 335 30" fill="none" xmlns="http://www.w3.org/2000/svg">
<mask id="mask0_416_7594" style="mask-type:luminance" maskUnits="userSpaceOnUse" x="0" y="0" width="335" height="30">
<path d="M334.08 0H0V29.18H334.08V0Z" fill="white"/>
</mask>
<g mask="url(#mask0_416_7594)">
<path d="M336.16 26.03H319.54V0.639999H316.73V28.6H336.16V26.03ZM311.88 28.6L300.85 0.639999H298.26L287.24 28.6H290.21L292.72 22.26H306.41L308.92 28.6H311.88ZM293.71 19.69L299.53 4.63H299.61L305.43 19.69H293.71ZM271.29 26.7C264.52 26.7 259.2 21.26 259.2 14.62C259.2 7.98 264.52 2.54 271.29 2.54C276.61 2.54 281.06 5.86 282.78 10.48H285.59C283.76 4.44 278.02 0 271.29 0C263.04 0 256.31 6.56 256.31 14.62C256.31 22.68 263.04 29.24 271.29 29.24C278.02 29.24 283.76 24.8 285.59 18.76H282.78C281.07 23.38 276.62 26.7 271.29 26.7ZM252.38 14.62C252.38 6.57 245.61 0 237.32 0C228.99 0 222.26 6.56 222.26 14.62C222.26 22.68 228.99 29.24 237.32 29.24C245.61 29.23 252.38 22.67 252.38 14.62ZM249.49 14.62C249.49 21.29 244.09 26.7 237.32 26.7C230.55 26.7 225.15 21.29 225.15 14.62C225.15 7.95 230.55 2.54 237.32 2.54C244.09 2.54 249.49 7.94 249.49 14.62ZM222.85 26.03H206.23V0.639999H203.42V28.6H222.85V26.03Z" fill="#EC1D24"/>
</g>
<mask id="mask1_416_7594" style="mask-type:luminance" maskUnits="userSpaceOnUse" x="0" y="0" width="335" height="30">
<path d="M334.08 0H0V29.18H334.08V0Z" fill="white"/>
</mask>
<g mask="url(#mask1_416_7594)">
<path d="M18.2798 19.13C15.5498 19.13 11.0298 19.04 8.2498 18.9C9.7498 15.42 11.8998 10.63 13.6698 6.47H13.7198C14.6798 9 16.3198 13.43 18.2798 19.13ZM31.1798 28.08C28.8098 27.94 28.5398 27.9 28.2198 27.58C27.6698 27.08 27.3098 26.31 26.4398 24.01C21.1098 9.46 19.2398 3.9 18.1398 0.420003C18.0898 0.240003 17.8698 0.190002 16.5398 0.190002C15.7698 0.190002 15.6298 0.190003 15.5398 0.280003C12.7098 7.51 8.74981 16.42 5.23981 23.87C4.59981 25.32 3.8698 26.4 3.2298 27.03C2.5898 27.66 2.2298 27.89 0.179805 28.07C0.0898047 28.11 0.0898047 28.39 0.179805 28.39C3.0998 28.3 6.5598 28.3 9.0198 28.39C9.1098 28.39 9.1598 28.03 9.0698 28.03C6.1498 27.8 5.55981 27.58 5.55981 26.18C5.55981 25.64 5.6998 24.87 6.0198 24.1C6.6998 22.34 7.0698 21.39 7.7998 19.85C7.8898 19.62 8.0698 19.62 8.2598 19.62C9.5798 19.57 10.7198 19.57 12.5398 19.57C15.6798 19.57 17.7798 19.62 18.4698 19.66C19.1998 21.74 20.2498 24.72 20.6998 26.08C20.9698 26.98 20.9298 27.35 20.7498 27.53C20.4798 27.8 19.7498 27.89 18.0198 27.98C17.8798 27.98 17.8798 28.39 18.0198 28.39C20.6598 28.3 22.3998 28.34 24.3098 28.34C25.9998 28.34 28.6398 28.39 31.1898 28.43C31.2698 28.44 31.2698 28.08 31.1798 28.08ZM55.0998 15.24C55.0998 19.62 54.7398 22.06 53.9198 23.69C52.5098 26.54 49.6798 27.89 45.9898 27.89C43.2998 27.89 42.8898 27.84 42.7498 27.71C42.6098 27.57 42.5198 26.9 42.5198 25.22C42.4698 21.83 42.4698 18.12 42.4698 14.96C42.4698 11.8 42.5198 4.2 42.5598 2.62C42.5598 1.76 42.6098 1.58 42.6998 1.49C42.7498 1.4 43.1598 1.35 45.9798 1.35C50.5398 1.35 52.3598 2.53 53.4098 4.6C54.5098 6.74 55.0998 10.49 55.0998 15.24ZM61.9398 13.48C61.9398 9.82 60.5698 7.02 58.5698 5.03C55.8398 2.32 51.5498 0.870003 46.3998 0.870003C44.1698 0.870003 41.1098 0.960003 39.1498 0.960003C37.0998 0.960003 34.7698 0.910003 32.1798 0.870003C32.0898 0.870003 32.0898 1.28 32.1798 1.28C35.3298 1.33 35.6398 1.37 35.7398 1.51C35.9698 1.69 36.0998 2.78 36.0998 5.49C36.0998 8.65 36.0498 13.58 36.0498 16.61C36.0498 19.77 36.0498 23.66 35.9998 24.79C35.9998 26.91 35.8598 27.59 35.7298 27.73C35.6398 27.87 35.0898 27.91 32.0798 27.96C31.9398 27.96 31.9398 28.41 32.0798 28.41C33.2698 28.36 35.1798 28.36 37.3698 28.32C39.6498 28.32 43.5698 28.41 46.0798 28.41C51.2798 28.41 55.0098 26.47 57.7898 23.71C60.0698 21.43 61.9398 18.45 61.9398 13.48ZM90.5198 1.18C90.6598 1.13 90.6098 0.820003 90.5198 0.820003C87.0998 0.960003 85.2298 0.910003 81.3598 0.820003C81.2198 0.820003 81.1798 1.14 81.3098 1.14C84.5898 1.41 85.3698 2 85.3698 3.31C85.3698 4.21 85.0098 5.3 84.2798 7.29C82.6398 11.58 80.1298 17.78 78.1698 22.61H78.1198C75.8898 16.64 73.7898 11.08 71.3698 4.39C70.7298 2.67 70.6398 1.95 70.8698 1.72C71.0998 1.49 71.5998 1.45 74.0598 1.31C74.1498 1.31 74.1498 0.950003 74.0598 0.950003C69.1798 0.900003 64.0298 0.990002 60.2898 0.770002C60.1498 0.770002 60.1098 1.13 60.2398 1.18C62.3798 1.41 62.7498 1.5 63.0698 1.81C63.3898 2.17 63.7998 2.89 64.3898 4.34C68.8998 15.73 72.0898 23.87 73.8698 28.93C73.9598 29.16 74.1398 29.25 75.0998 29.25C76.0998 29.25 76.2898 29.16 76.3798 28.98C79.6198 20.48 81.8498 14.83 84.9898 7.24C86.2698 4.17 87.0398 2.9 87.8198 2.09C88.2398 1.68 88.7398 1.36 90.5198 1.18ZM100.32 19.13C97.5898 19.13 93.0698 19.04 90.2898 18.9C91.7898 15.42 93.9398 10.63 95.7098 6.47H95.7598C96.7198 9 98.3598 13.43 100.32 19.13ZM140.56 0.820003C138.96 0.910003 137.87 0.960003 136.73 0.960003C135.13 0.960003 132.9 0.820003 131.58 0.780003C131.44 0.780003 131.4 1.14 131.53 1.14C134.08 1.32 134.86 1.5 135.22 1.86C135.86 2.49 136.22 4.89 136.22 10.9C136.22 13.02 136.17 17.27 136.13 19.4H136.09C132.21 14.02 127.38 7.33 123.28 1.55C122.73 0.780003 122.64 0.780003 122.28 0.780003C121.64 0.780003 119.77 0.870003 116.72 0.870003C115.26 0.870003 113.21 0.820003 111.61 0.820003C111.47 0.820003 111.47 1.23 111.61 1.23C113.8 1.32 114.71 1.59 115.21 2.04C115.48 2.36 115.99 3.12 115.99 3.26C115.94 10.76 116.13 15.46 116.13 21.16C116.13 25.59 115.81 26.86 115.22 27.4C114.93 27.68 114.6 27.9 112.51 28.03C110.8 27.92 110.55 27.86 110.27 27.58C109.72 27.08 109.36 26.31 108.49 24.01C103.16 9.46 101.29 3.9 100.19 0.420003C100.14 0.240003 99.9198 0.190002 98.5898 0.190002C97.8098 0.190002 97.6798 0.190003 97.5898 0.280003C94.7598 7.51 90.7998 16.42 87.2898 23.87C86.6498 25.32 85.9198 26.4 85.2798 27.03C84.6398 27.66 84.2798 27.89 82.2298 28.07C82.1398 28.11 82.1398 28.39 82.2298 28.39C85.1498 28.3 88.6098 28.3 91.0698 28.39C91.1598 28.39 91.2098 28.03 91.1198 28.03C88.1998 27.8 87.6098 27.58 87.6098 26.18C87.6098 25.64 87.7498 24.87 88.0698 24.1C88.7498 22.34 89.1198 21.39 89.8498 19.85C89.9398 19.62 90.1198 19.62 90.3098 19.62C91.6298 19.57 92.7698 19.57 94.5898 19.57C97.7398 19.57 99.8298 19.62 100.52 19.66C101.25 21.74 102.3 24.72 102.75 26.08C103.02 26.98 102.98 27.35 102.8 27.53C102.53 27.8 101.8 27.89 100.07 27.98C99.9298 27.98 99.9298 28.39 100.07 28.39C102.71 28.3 104.45 28.34 106.36 28.34C107.71 28.34 115.63 28.34 116.69 28.34C118.7 28.34 119.65 28.34 121.71 28.48C121.85 28.48 121.85 28.12 121.71 28.12C118.52 27.89 117.97 27.76 117.7 27.44C117.29 27.03 116.88 25.95 116.83 22.11C116.78 16.19 116.56 9.05 116.6 3.71H116.65C122.08 10.94 129.42 20.84 134.8 28.93C134.85 28.98 134.94 28.98 135.89 28.98C136.85 28.98 136.89 28.93 136.89 28.84C136.89 25.63 136.8 23.05 136.8 19.71C136.8 16.82 136.89 13.56 136.89 10.53C136.89 3.12 137.21 2.26 137.67 1.81C137.9 1.58 138.26 1.45 140.63 1.22C140.75 1.18 140.7 0.820003 140.56 0.820003ZM164.05 25.77C165.97 23.92 166.97 21.57 167.52 18.99C167.57 18.81 167.16 18.76 167.11 18.9C166.56 21.3 165.51 23.6 163.83 25.27C162.42 26.67 160 27.8 157.22 27.8C153.71 27.8 151.7 26.58 150.47 24.14C149.42 22.11 149.01 19.21 149.01 15.33C149.01 9.95 149.65 6.97 150.7 4.89C151.79 2.72 153.66 1.23 156.9 1.23C159.59 1.23 160.82 2.04 161.96 3.17C163.46 4.66 164.92 7.6 166.15 10.9C166.2 11.08 166.56 11.04 166.56 10.9C166.47 8.55 166.47 3.67 166.56 0.590003C166.56 0.360003 166.33 0.360003 166.24 0.450003C164.37 2.53 164.01 3.03 163.64 3.03C163.23 3.03 160.77 0.590003 156.44 0.590003C152.06 0.590003 148.73 2.44 145.91 5.25C143.17 7.96 141.99 11.4 141.99 15.38C141.99 19.4 143.54 22.61 145.96 25.01C148.65 27.63 152.12 28.76 155.85 28.76C159.58 28.75 162.31 27.53 164.05 25.77ZM195.32 17.41C195.32 17.18 194.96 17.18 194.86 17.36C193.81 21.47 192.44 24.64 191.08 25.99C189.71 27.35 188.44 27.84 186.75 27.84H183.42C181.19 27.84 180.41 27.7 180.32 27.61C180.18 27.47 180.09 26.53 180.09 19.47C180.09 18.11 180.04 15.67 180.09 14.36C180.77 14.31 181.87 14.31 183.69 14.31C185.06 14.31 185.88 14.58 186.38 15.08C186.97 15.67 187.47 16.89 188.07 19.96C188.12 20.14 188.43 20.14 188.43 19.91C188.25 17.02 188.29 12.59 188.38 8.2C188.38 7.97 187.97 7.97 187.97 8.16C187.51 11.32 187.06 12 186.42 12.63C185.69 13.35 184.37 13.72 182.41 13.72C181.59 13.72 180.91 13.72 180.08 13.67V6.75C180.08 2.05 180.08 1.55 180.17 1.51C180.26 1.37 180.53 1.37 183.68 1.37C187.87 1.37 188.83 1.73 190.2 3.04C191.43 4.26 192.48 6.57 193.67 10.68C193.76 10.91 194.08 10.86 194.08 10.68C194.22 7.88 194.35 4.26 194.54 1.28C194.59 0.870003 194.49 0.740003 194.27 0.740003C189.39 0.920003 185.74 0.920003 182.28 0.920003C180.27 0.920003 172.29 0.830003 170.06 0.780003C169.97 0.780003 169.92 1.23 170.06 1.23C172.84 1.32 173.48 1.41 173.57 1.5C173.66 1.59 173.71 2.18 173.71 7.06C173.71 11.67 173.76 14.97 173.76 18.9C173.76 25.77 173.62 27.49 173.49 27.62C173.4 27.76 172.94 27.85 169.71 27.94C169.57 27.94 169.57 28.35 169.66 28.35C173.85 28.3 176.09 28.26 181.65 28.26C186.48 28.26 187.17 28.26 194.78 28.3C194.96 28.3 195.05 28.26 195.05 28.07C195.14 24.6 195.23 20.89 195.32 17.41Z" fill="black"/>
</g>
</svg>
