<svg width="40" height="37" viewBox="0 0 40 37" fill="none" xmlns="http://www.w3.org/2000/svg">
    <circle cx="21.5" cy="18.5" r="18.5" fill="#9FC4AD"/>
    <path d="M23.7534 8.77344H3.83029C2.52038 8.77344 1.4585 9.83533 1.4585 11.1452V25.376C1.4585 26.6859 2.52038 27.7478 3.83029 27.7478H23.7534C25.0633 27.7478 26.1252 26.6859 26.1252 25.376V11.1452C26.1252 9.83533 25.0633 8.77344 23.7534 8.77344Z" fill="#9FC4AD"/>
    <path d="M5.25337 12.5683L13.7918 19.2093L22.3303 12.5683" fill="#9FC4AD"/>
    <path d="M5.25337 12.5683L13.7918 19.2093L22.3303 12.5683M3.83029 8.77344H23.7534C25.0633 8.77344 26.1252 9.83533 26.1252 11.1452V25.376C26.1252 26.6859 25.0633 27.7478 23.7534 27.7478H3.83029C2.52038 27.7478 1.4585 26.6859 1.4585 25.376V11.1452C1.4585 9.83533 2.52038 8.77344 3.83029 8.77344Z" stroke="#2A2A2A" stroke-width="1.54167" stroke-linecap="round" stroke-linejoin="round"/>
</svg>
